<svg width="75" height="41" viewBox="0 0 75 41" fill="none" xmlns="http://www.w3.org/2000/svg">
<g id="Group 1">
<path id="Vector" d="M74.7036 27.0852C74.3084 25.8861 73.934 24.8731 73.6428 23.8188C73.4555 23.1573 73.0811 22.9712 72.4363 22.9919C70.3977 23.0746 68.3383 22.9712 66.3205 23.2193C64.3028 23.4674 62.9299 22.8678 62.0146 21.0693C61.7442 20.5318 61.2865 20.0563 60.8913 19.5808C60.3504 18.9399 60.2464 18.299 60.5585 17.4928C61.4529 15.2187 62.2226 12.9033 63.1171 10.6086C63.4083 9.86437 63.2627 9.40956 62.597 8.97542C61.3697 8.14849 60.2256 7.25955 59.0399 6.43262C57.3758 5.29559 57.8334 5.2129 56.1693 6.45329C54.3387 7.81772 52.5082 9.16148 50.6984 10.5673C50.116 11.0221 49.5543 11.0841 48.8679 10.836C47.7654 10.4225 46.6629 10.0091 45.5188 9.76101C44.5411 9.5336 44.0835 8.97542 43.8339 8.0658C43.1682 5.7504 42.4193 3.45567 41.7537 1.14027C41.5665 0.478726 41.2336 0.147955 40.5472 0.127281C38.8414 0.106608 37.1565 0.106608 35.4716 0.0239153C34.5355 -0.0174311 34.0154 0.313341 33.745 1.24364C33.121 3.49702 32.3721 5.70905 31.7272 7.96244C31.4776 8.85138 31.0616 9.36821 30.1047 9.57495C28.8982 9.8437 27.6917 10.2158 26.5476 10.6706C25.7571 10.9807 25.1747 10.836 24.5506 10.3605C22.5121 8.81004 20.4527 7.30089 18.4349 5.72973C17.8941 5.31626 17.4781 5.31626 16.958 5.70905C15.5019 6.76339 14.025 7.79705 12.548 8.78936C11.924 9.20283 11.9032 9.63697 12.1528 10.2778C13.0681 12.6553 13.9418 15.0534 14.753 17.4514C14.8986 17.8856 14.753 18.5471 14.5034 18.9399C13.7545 20.0976 12.8393 21.152 12.0696 22.289C11.612 22.9505 11.0711 23.2193 10.2598 23.1779C7.70124 23.0746 5.14262 23.0125 2.5632 22.9919C2.20957 22.9919 1.64793 23.1573 1.54392 23.4053C1.06548 24.563 0.71185 25.7621 0.254211 27.0852C0.815858 27.0852 1.19029 27.0852 1.58552 27.0852C5.39224 27.0852 9.21976 27.0025 13.0265 27.1265C14.5242 27.1679 15.5227 26.8784 16.0219 25.39C16.1883 24.9145 16.5628 24.501 16.8332 24.0876C23.1153 14.4538 35.9916 10.5673 46.6213 15.0327C52.1338 17.3481 56.2733 21.1106 59.1231 26.3409C59.2896 26.6717 59.7472 27.0645 60.0592 27.0645C64.8644 27.1058 69.6904 27.0852 74.7036 27.0852Z" fill="white"/>
<path id="Vector_2" d="M74.7036 27.0853C69.6696 27.0853 64.8644 27.106 60.0384 27.044C59.7264 27.044 59.2687 26.6512 59.1023 26.3204C56.2525 21.0901 52.1129 17.3276 46.6005 15.0122C35.9916 10.5674 23.1153 14.454 16.7916 24.067C16.5003 24.5012 16.1259 24.894 15.9803 25.3695C15.4811 26.8579 14.4826 27.168 12.9849 27.106C9.17814 26.982 5.37142 27.0647 1.5439 27.0647C1.16947 27.0647 0.795034 27.0647 0.212585 27.0647C0.649422 25.7622 1.00305 24.5425 1.50229 23.3848C1.6063 23.1367 2.16795 22.9714 2.52158 22.9714C5.08019 22.992 7.65961 23.0541 10.2182 23.1574C11.0503 23.1988 11.5703 22.93 12.028 22.2685C12.8184 21.1314 13.7129 20.0771 14.4618 18.9194C14.7114 18.5266 14.857 17.8651 14.7114 17.4309C13.9001 15.0122 13.0057 12.6347 12.1112 10.2573C11.8616 9.61646 11.9032 9.18232 12.5064 8.76886C14.0041 7.77654 15.4603 6.72221 16.9164 5.68854C17.4364 5.31643 17.8525 5.29575 18.3933 5.70922C20.4111 7.28038 22.4913 8.78953 24.509 10.34C25.1331 10.8155 25.7155 10.9809 26.506 10.6501C27.6501 10.1953 28.8566 9.82319 30.0631 9.55444C31.02 9.3477 31.436 8.83087 31.6856 7.94193C32.3097 5.68854 33.0585 3.47651 33.7034 1.22313C33.9738 0.292833 34.4939 -0.0379389 35.4299 0.0034075C37.1149 0.0861004 38.8206 0.0861004 40.5056 0.106774C41.2128 0.106774 41.5248 0.437545 41.7121 1.11976C42.3777 3.43516 43.1266 5.72989 43.7922 8.04529C44.0419 8.95491 44.4995 9.51309 45.4772 9.7405C46.6213 10.0092 47.7238 10.402 48.8263 10.8155C49.5127 11.0843 50.0744 11.0016 50.6568 10.5468C52.4666 9.16165 54.2971 7.79721 56.1277 6.43278C57.7918 5.19239 57.355 5.27508 58.9983 6.41211C60.184 7.23904 61.3489 8.12799 62.5554 8.91357C63.2211 9.34771 63.3667 9.80252 63.0754 10.5468C62.2018 12.8208 61.4113 15.1362 60.5168 17.4309C60.2048 18.2372 60.3088 18.8781 60.8497 19.5189C61.2449 19.9944 61.6817 20.4699 61.973 21.0074C62.8882 22.806 64.2611 23.4055 66.2789 23.1574C68.2967 22.9093 70.3561 23.0127 72.3946 22.93C73.0395 22.9093 73.4139 23.1161 73.6011 23.7569C73.9548 24.8733 74.3292 25.8863 74.7036 27.0853Z" fill="#FF3811"/>
<path id="Vector_3" d="M53.5691 34.0729C51.1145 31.6541 48.639 29.2147 46.1636 26.7546C45.7268 26.3204 45.4564 26.6098 45.1444 26.9199C43.9795 28.0983 42.8146 29.2767 41.6289 30.4137C40.88 31.1373 40.0687 31.8402 39.2783 32.5431C39.3407 32.6464 39.4031 32.7291 39.4655 32.8325C41.7745 32.3777 43.7922 32.8532 45.4564 34.4863C47.0997 36.1195 47.5366 38.1662 47.1205 40.3782C49.2839 38.2695 51.3849 36.2022 53.5691 34.0729Z" fill="white"/>
<path id="Vector_4" d="M35.638 32.7085C35.326 32.357 35.1803 32.1296 34.9931 31.9435C33.329 30.2897 31.6233 28.6772 30.0007 26.982C29.4183 26.3824 29.0646 26.4031 28.503 26.982C26.3396 29.1733 24.1762 31.3233 21.9504 33.4527C21.3888 33.9902 21.5136 34.321 21.992 34.7964C23.7394 36.5123 25.4659 38.2489 27.2133 39.9648C27.3589 40.1095 27.5669 40.1922 27.8165 40.3575C27.0885 35.396 30.5832 31.9849 35.638 32.7085Z" fill="white"/>
<path id="Vector_5" d="M27.5461 24.6045C24.9043 27.2713 22.3457 29.8762 19.8079 32.4396C19.9951 32.6877 20.2447 33.0392 20.4735 33.3286C23.1569 30.6617 25.7364 28.1189 28.4822 25.4107C28.191 25.1627 27.8581 24.8732 27.5461 24.6045Z" fill="white"/>
<path id="Vector_6" d="M57.0638 30.6617C57.0014 30.5584 56.9598 30.4343 56.8766 30.331C54.526 27.9949 52.1962 25.6795 49.8456 23.3434C49.4504 22.9506 49.1591 22.9299 48.7223 23.3434C48.2647 23.7982 48.3479 24.1083 48.7639 24.5218C50.8649 26.5684 52.9243 28.6358 55.0044 30.7031C55.3373 31.0339 55.6909 31.3439 56.1693 31.7988C56.4814 31.406 56.731 31.0959 57.0638 30.6617Z" fill="white"/>
<path id="Vector_7" d="M55.3997 32.3154C52.9866 29.9173 50.6153 27.5813 48.2439 25.2038C47.8486 24.811 47.5158 24.5009 46.9749 25.0798C46.4549 25.638 46.7461 25.9687 47.1622 26.3615C49.2839 28.4495 51.3849 30.5375 53.4859 32.6255C54.422 33.5765 54.4428 33.5765 55.3997 32.3154Z" fill="white"/>
<path id="Vector_8" d="M26.6725 23.8395C25.7364 22.7025 25.7572 22.7025 24.7587 23.6741C22.7201 25.7001 20.6816 27.7054 18.6638 29.7314C17.6861 30.703 17.7069 30.8271 18.8718 31.4886C21.472 28.9458 24.0514 26.403 26.6725 23.8395Z" fill="white"/>
<path id="Vector_9" d="M53.5691 34.0727C51.3849 36.2227 49.2839 38.2694 47.1205 40.3987C47.5366 38.1867 47.0997 36.1607 45.4564 34.5068C43.7922 32.853 41.7537 32.3982 39.4655 32.853C39.4031 32.7496 39.3407 32.6669 39.2783 32.5636C40.0687 31.8607 40.8592 31.1785 41.6289 30.4342C42.8146 29.2765 43.9795 28.1188 45.1444 26.9404C45.4564 26.6303 45.7268 26.3409 46.1636 26.7751C48.639 29.1938 51.1145 31.6333 53.5691 34.0727ZM47.8902 30.7236C47.4533 31.3025 46.9333 31.6953 46.9749 31.9847C47.0373 32.3362 47.5782 32.6256 47.911 32.9357C48.2022 32.6256 48.7015 32.3155 48.7223 31.9847C48.7639 31.6539 48.3062 31.2818 47.8902 30.7236Z" fill="white"/>
<path id="Vector_10" d="M35.638 32.7083C30.5624 31.9847 27.0885 35.3958 27.8165 40.378C27.5669 40.2127 27.3589 40.13 27.2133 39.9853C25.4659 38.2694 23.7394 36.5328 21.992 34.817C21.5136 34.3415 21.3888 34.0107 21.9504 33.4732C24.1554 31.3438 26.3396 29.1732 28.503 27.0025C29.0646 26.4236 29.4183 26.4029 30.0007 27.0025C31.6233 28.6977 33.329 30.3102 34.9931 31.964C35.1803 32.1294 35.3468 32.3568 35.638 32.7083ZM28.3782 32.0467C27.7957 31.5713 27.4213 31.0544 27.1509 31.0958C26.7764 31.1578 26.4644 31.6746 26.1316 31.9847C26.4436 32.2948 26.714 32.791 27.0677 32.853C27.3589 32.8943 27.7541 32.4395 28.3782 32.0467Z" fill="white"/>
<path id="Vector_11" d="M27.5461 24.6045C27.8581 24.8732 28.191 25.142 28.4822 25.4107C25.7572 28.1189 23.1777 30.6617 20.4735 33.3286C20.2447 33.0185 19.9743 32.6671 19.8079 32.4396C22.3457 29.8762 24.9251 27.2713 27.5461 24.6045Z" fill="white"/>
<path id="Vector_12" d="M57.0638 30.6616C56.7309 31.0957 56.4813 31.4058 56.1693 31.8193C55.6909 31.3645 55.3372 31.0544 55.0044 30.7236C52.9242 28.6563 50.8648 26.5889 48.7639 24.5423C48.327 24.1288 48.2438 23.8187 48.7223 23.3639C49.1383 22.9505 49.4503 22.9711 49.8456 23.3639C52.1754 25.7 54.526 28.0154 56.8765 30.3515C56.9598 30.4135 57.0014 30.5582 57.0638 30.6616Z" fill="white"/>
<path id="Vector_13" d="M55.3997 32.3154C54.4636 33.5765 54.4428 33.5765 53.4859 32.6255C51.3849 30.5375 49.2839 28.4289 47.1622 26.3615C46.7461 25.9687 46.4549 25.638 46.9749 25.0798C47.5158 24.5009 47.8486 24.811 48.2439 25.2038C50.6153 27.5813 52.9866 29.9173 55.3997 32.3154Z" fill="white"/>
<path id="Vector_14" d="M26.6725 23.8396C24.0514 26.4237 21.472 28.9458 18.8718 31.5093C17.7069 30.8478 17.6861 30.7237 18.6638 29.7521C20.7024 27.7261 22.7409 25.7208 24.7587 23.6948C25.7572 22.7025 25.7572 22.7025 26.6725 23.8396Z" fill="white"/>
<path id="Vector_15" d="M47.8902 30.7236C48.2855 31.3025 48.7431 31.6539 48.7223 31.9847C48.7015 32.3155 48.2022 32.6256 47.911 32.9357C47.5782 32.6256 47.0373 32.3568 46.9749 31.9847C46.9333 31.6953 47.4534 31.3025 47.8902 30.7236Z" fill="white"/>
<path id="Vector_16" d="M28.3782 32.0469C27.7541 32.4397 27.3797 32.8945 27.0469 32.8325C26.6932 32.7912 26.4228 32.2743 26.1108 31.9642C26.4436 31.6541 26.7556 31.1373 27.1301 31.0753C27.4213 31.0546 27.7957 31.5921 28.3782 32.0469Z" fill="white"/>
</g>
</svg>
